<svg xmlns="http://www.w3.org/2000/svg" xmlns:xlink="http://www.w3.org/1999/xlink" xmlns:lucid="lucid" width="780" height="1204.68"><g transform="translate(1320 620)" lucid:page-tab-id="0_0"><path d="M-1120 94.35a6 6 0 0 1 6-6h108a6 6 0 0 1 6 6v23.25a6 6 0 0 1-6 6h-108a6 6 0 0 1-6-6z" stroke="#000" stroke-opacity="0" fill="#fff" fill-opacity="0"/><use xlink:href="#a" transform="matrix(1,0,0,1,-1115,93.35201328125027) translate(41.626543209876544 15.694444444444443)"/><path d="M-1008.07-594a6 6 0 0 1 6-6h148a6 6 0 0 1 6 6v80.46a6 6 0 0 1-6 6h-148a6 6 0 0 1-6-6z" stroke="#000" fill="#fff"/><use xlink:href="#b" transform="matrix(1,0,0,1,-996.0669291338581,-588) translate(68 21.160156249999996)"/><use xlink:href="#c" transform="matrix(1,0,0,1,-996.0669291338581,-588) translate(42.6875 44.607421875)"/><use xlink:href="#d" transform="matrix(1,0,0,1,-996.0669291338581,-588) translate(59.1328125 44.607421875)"/><use xlink:href="#e" transform="matrix(1,0,0,1,-996.0669291338581,-588) translate(83.751953125 44.607421875)"/><use xlink:href="#f" transform="matrix(1,0,0,1,-996.0669291338581,-588) translate(45.8955078125 68.0546875)"/><path d="M-1007.82-567.04a.25.25 0 0 1 .25-.25h159a.25.25 0 0 1 .25.26.25.25 0 0 1-.25.25h-159a.25.25 0 0 1-.25-.24z" stroke="#3a414a" stroke-width=".5" fill="none"/><path d="M-988.07-588.8a6 6 0 0 1 6-6h108a6 6 0 0 1 6 6v15.26a6 6 0 0 1-6 6h-108a6 6 0 0 1-6-6z" stroke="#000" stroke-opacity="0" fill="#dfe3e8"/><use xlink:href="#g" transform="matrix(1,0,0,1,-983.0669291338581,-589.7916541666668) translate(17.79351128472223 15.905815972222218)"/><use xlink:href="#h" transform="matrix(1,0,0,1,-983.0669291338581,-589.7916541666668) translate(28.738606770833336 15.905815972222218)"/><use xlink:href="#i" transform="matrix(1,0,0,1,-983.0669291338581,-589.7916541666668) translate(43.78526475694444 15.905815972222218)"/><path d="M-928.07-506.54v21.1" stroke="#3a414a" fill="none"/><path d="M-927.57-506.53h-1v-.5h1z" stroke="#3a414a" stroke-width=".05" fill="#3a414a"/><path d="M-928.07-470.66l-4.63-14.26h9.27z" stroke="#3a414a" fill="#3a414a"/><path d="M-1008.07-462.54a6 6 0 0 1 6-6h148a6 6 0 0 1 6 6v108a6 6 0 0 1-6 6h-148a6 6 0 0 1-6-6z" stroke="#000" fill="#fff"/><use xlink:href="#b" transform="matrix(1,0,0,1,-996.0669291338581,-456.54167916666665) translate(68 22.003906249999996)"/><use xlink:href="#c" transform="matrix(1,0,0,1,-996.0669291338581,-456.54167916666665) translate(42.6875 45.451171875)"/><use xlink:href="#d" transform="matrix(1,0,0,1,-996.0669291338581,-456.54167916666665) translate(59.1328125 45.451171875)"/><use xlink:href="#e" transform="matrix(1,0,0,1,-996.0669291338581,-456.54167916666665) translate(83.751953125 45.451171875)"/><use xlink:href="#j" transform="matrix(1,0,0,1,-996.0669291338581,-456.54167916666665) translate(12.60302734375 68.8984375)"/><use xlink:href="#k" transform="matrix(1,0,0,1,-996.0669291338581,-456.54167916666665) translate(77.07080078125 68.8984375)"/><use xlink:href="#l" transform="matrix(1,0,0,1,-996.0669291338581,-456.54167916666665) translate(96.41650390625 68.8984375)"/><use xlink:href="#m" transform="matrix(1,0,0,1,-996.0669291338581,-456.54167916666665) translate(41.58984375 92.345703125)"/><use xlink:href="#n" transform="matrix(1,0,0,1,-996.0669291338581,-456.54167916666665) translate(72.419921875 92.345703125)"/><path d="M-1007.82-436.63a.25.25 0 0 1 .25-.25h159a.25.25 0 0 1 .25.25.25.25 0 0 1-.25.25h-159a.25.25 0 0 1-.25-.25z" stroke="#3a414a" stroke-width=".5" fill="none"/><path d="M-988.07-454a6 6 0 0 1 6-6h108a6 6 0 0 1 6 6v10.88a6 6 0 0 1-6 6h-108a6 6 0 0 1-6-6z" stroke="#000" stroke-opacity="0" fill="#dfe3e8"/><use xlink:href="#o" transform="matrix(1,0,0,1,-983.0669291338581,-455) translate(17.6340060763889 14.780815972222218)"/><use xlink:href="#h" transform="matrix(1,0,0,1,-983.0669291338581,-455) translate(28.898111979166675 14.780815972222218)"/><use xlink:href="#i" transform="matrix(1,0,0,1,-983.0669291338581,-455) translate(43.944769965277786 14.780815972222218)"/><path d="M-928.07-347.54v46.16" stroke="#3a414a" fill="none"/><path d="M-927.57-347.53h-1v-.5h1z" stroke="#3a414a" stroke-width=".05" fill="#3a414a"/><path d="M-928.07-286.6l-4.63-14.28h9.27z" stroke="#3a414a" fill="#3a414a"/><path d="M-1040-278.5a6 6 0 0 1 6-6h211.87a6 6 0 0 1 6 6v129.24a6 6 0 0 1-6 6H-1034a6 6 0 0 1-6-6z" stroke="#000" fill="#fff"/><use xlink:href="#p" transform="matrix(1,0,0,1,-1027.9999999999998,-272.49312656250015) translate(100 22.691406249999993)"/><use xlink:href="#q" transform="matrix(1,0,0,1,-1027.9999999999998,-272.49312656250015) translate(74.6875 46.138671874999986)"/><use xlink:href="#r" transform="matrix(1,0,0,1,-1027.9999999999998,-272.49312656250015) translate(91.1328125 46.138671874999986)"/><use xlink:href="#s" transform="matrix(1,0,0,1,-1027.9999999999998,-272.49312656250015) translate(115.751953125 46.138671874999986)"/><use xlink:href="#t" transform="matrix(1,0,0,1,-1027.9999999999998,-272.49312656250015) translate(9.798339843750014 69.58593749999999)"/><use xlink:href="#u" transform="matrix(1,0,0,1,-1027.9999999999998,-272.49312656250015) translate(74.26611328125 69.58593749999999)"/><use xlink:href="#v" transform="matrix(1,0,0,1,-1027.9999999999998,-272.49312656250015) translate(93.61181640625 69.58593749999999)"/><use xlink:href="#w" transform="matrix(1,0,0,1,-1027.9999999999998,-272.49312656250015) translate(118.80224609375 69.58593749999999)"/><use xlink:href="#u" transform="matrix(1,0,0,1,-1027.9999999999998,-272.49312656250015) translate(143.87548828125 69.58593749999999)"/><use xlink:href="#x" transform="matrix(1,0,0,1,-1027.9999999999998,-272.49312656250015) translate(163.22119140625 69.58593749999999)"/><use xlink:href="#y" transform="matrix(1,0,0,1,-1027.9999999999998,-272.49312656250015) translate(73.58984375 93.03320312499999)"/><use xlink:href="#z" transform="matrix(1,0,0,1,-1027.9999999999998,-272.49312656250015) translate(104.419921875 93.03320312499999)"/><use xlink:href="#A" transform="matrix(1,0,0,1,-1027.9999999999998,-272.49312656250015) translate(73.384765625 116.48046874999999)"/><use xlink:href="#B" transform="matrix(1,0,0,1,-1027.9999999999998,-272.49312656250015) translate(104.625 116.48046874999999)"/><path d="M-1039.75-254.8a.25.25 0 0 1 .25-.26h222.87a.25.25 0 0 1 .25.25.25.25 0 0 1-.25.24h-222.87a.25.25 0 0 1-.25-.25z" stroke="#3a414a" stroke-width=".5" fill="none"/><path d="M-990.97-275a6 6 0 0 1 6-6h110.9a6 6 0 0 1 6 6v13.7a6 6 0 0 1-6 6h-110.9a6 6 0 0 1-6-6z" stroke="#000" stroke-opacity="0" fill="#dfe3e8"/><use xlink:href="#C" transform="matrix(1,0,0,1,-985.9665354330707,-276) translate(28.753689236111118 14.780815972222218)"/><use xlink:href="#D" transform="matrix(1,0,0,1,-985.9665354330707,-276) translate(39.25065104166667 14.780815972222218)"/><use xlink:href="#E" transform="matrix(1,0,0,1,-985.9665354330707,-276) translate(54.29730902777778 14.780815972222218)"/><use xlink:href="#F" transform="matrix(1,0,0,1,-985.9665354330707,-276) translate(66.33615451388889 14.780815972222218)"/><use xlink:href="#G" transform="matrix(1,0,0,1,-985.9665354330707,-276) translate(76.40776909722221 14.780815972222218)"/><path d="M-1088.07-86.17a6 6 0 0 1 6-6h308a6 6 0 0 1 6 6V66.5a6 6 0 0 1-6 6h-308a6 6 0 0 1-6-6z" stroke="#000" fill="#fff"/><use xlink:href="#b" transform="matrix(1,0,0,1,-1076.0669291338581,-80.169189453125) translate(148 19.003906249999996)"/><use xlink:href="#c" transform="matrix(1,0,0,1,-1076.0669291338581,-80.169189453125) translate(122.6875 42.451171875)"/><use xlink:href="#d" transform="matrix(1,0,0,1,-1076.0669291338581,-80.169189453125) translate(139.1328125 42.451171875)"/><use xlink:href="#e" transform="matrix(1,0,0,1,-1076.0669291338581,-80.169189453125) translate(163.751953125 42.451171875)"/><use xlink:href="#j" transform="matrix(1,0,0,1,-1076.0669291338581,-80.169189453125) translate(10.12548828125 65.8984375)"/><use xlink:href="#k" transform="matrix(1,0,0,1,-1076.0669291338581,-80.169189453125) translate(74.59326171875 65.8984375)"/><use xlink:href="#H" transform="matrix(1,0,0,1,-1076.0669291338581,-80.169189453125) translate(93.93896484375 65.8984375)"/><use xlink:href="#I" transform="matrix(1,0,0,1,-1076.0669291338581,-80.169189453125) translate(119.12939453125 65.8984375)"/><use xlink:href="#k" transform="matrix(1,0,0,1,-1076.0669291338581,-80.169189453125) translate(144.20263671875 65.8984375)"/><use xlink:href="#J" transform="matrix(1,0,0,1,-1076.0669291338581,-80.169189453125) translate(163.54833984375 65.8984375)"/><use xlink:href="#K" transform="matrix(1,0,0,1,-1076.0669291338581,-80.169189453125) translate(188.73876953125 65.8984375)"/><use xlink:href="#k" transform="matrix(1,0,0,1,-1076.0669291338581,-80.169189453125) translate(213.81201171875 65.8984375)"/><use xlink:href="#L" transform="matrix(1,0,0,1,-1076.0669291338581,-80.169189453125) translate(233.15771484375 65.8984375)"/><use xlink:href="#M" transform="matrix(1,0,0,1,-1076.0669291338581,-80.169189453125) translate(258.23095703125 65.8984375)"/><use xlink:href="#N" transform="matrix(1,0,0,1,-1076.0669291338581,-80.169189453125) translate(267.29541015625 65.8984375)"/><use xlink:href="#O" transform="matrix(1,0,0,1,-1076.0669291338581,-80.169189453125) translate(278.13037109375 65.8984375)"/><use xlink:href="#m" transform="matrix(1,0,0,1,-1076.0669291338581,-80.169189453125) translate(121.58984375 89.345703125)"/><use xlink:href="#P" transform="matrix(1,0,0,1,-1076.0669291338581,-80.169189453125) translate(152.419921875 89.345703125)"/><use xlink:href="#Q" transform="matrix(1,0,0,1,-1076.0669291338581,-80.169189453125) translate(121.384765625 112.79296875)"/><use xlink:href="#R" transform="matrix(1,0,0,1,-1076.0669291338581,-80.169189453125) translate(152.625 112.79296875)"/><use xlink:href="#S" transform="matrix(1,0,0,1,-1076.0669291338581,-80.169189453125) translate(121.8779296875 136.240234375)"/><use xlink:href="#T" transform="matrix(1,0,0,1,-1076.0669291338581,-80.169189453125) translate(152.1318359375 136.240234375)"/><path d="M-1087.82-61.63a.25.25 0 0 1 .25-.25h319a.25.25 0 0 1 .25.25.25.25 0 0 1-.25.25h-319a.25.25 0 0 1-.25-.25z" stroke="#3a414a" stroke-width=".5" fill="none"/><path d="M-989.52-82.08a6 6 0 0 1 6-6h110.9a6 6 0 0 1 6 6v13.95a6 6 0 0 1-6 6h-110.9a6 6 0 0 1-6-6z" stroke="#000" stroke-opacity="0" fill="#dfe3e8"/><g><use xlink:href="#U" transform="matrix(1,0,0,1,-984.5167322834643,-83.08335833333335) translate(9.370008680555564 14.780815972222218)"/><use xlink:href="#V" transform="matrix(1,0,0,1,-984.5167322834643,-83.08335833333335) translate(21.826605902777786 14.780815972222218)"/><use xlink:href="#W" transform="matrix(1,0,0,1,-984.5167322834643,-83.08335833333335) translate(32.77170138888889 14.780815972222218)"/><use xlink:href="#X" transform="matrix(1,0,0,1,-984.5167322834643,-83.08335833333335) translate(47.84874131944444 14.780815972222218)"/></g><path d="M-928.07-142.26v33.2" stroke="#3a414a" fill="none"/><path d="M-927.57-142.24h-1v-.52h1z" stroke="#3a414a" stroke-width=".05" fill="#3a414a"/><path d="M-928.07-94.3l-4.63-14.25h9.27z" stroke="#3a414a" fill="#3a414a"/><path d="M-1300 160.96a6 6 0 0 1 6-6h308a6 6 0 0 1 6 6v152.68a6 6 0 0 1-6 6h-308a6 6 0 0 1-6-6z" stroke="#000" fill="#fff"/><g><use xlink:href="#b" transform="matrix(1,0,0,1,-1288,166.955810546875) translate(148 19.003906249999996)"/><use xlink:href="#c" transform="matrix(1,0,0,1,-1288,166.955810546875) translate(69.81396484375 42.451171875)"/><use xlink:href="#Y" transform="matrix(1,0,0,1,-1288,166.955810546875) translate(86.25927734375 42.451171875)"/><use xlink:href="#Z" transform="matrix(1,0,0,1,-1288,166.955810546875) translate(115.28271484375 42.451171875)"/><use xlink:href="#aa" transform="matrix(1,0,0,1,-1288,166.955810546875) translate(140.35595703125 42.451171875)"/><use xlink:href="#ab" transform="matrix(1,0,0,1,-1288,166.955810546875) translate(159.74072265625 42.451171875)"/><use xlink:href="#j" transform="matrix(1,0,0,1,-1288,166.955810546875) translate(10.12548828125 65.8984375)"/><use xlink:href="#k" transform="matrix(1,0,0,1,-1288,166.955810546875) translate(74.59326171875 65.8984375)"/><use xlink:href="#H" transform="matrix(1,0,0,1,-1288,166.955810546875) translate(93.93896484375 65.8984375)"/><use xlink:href="#I" transform="matrix(1,0,0,1,-1288,166.955810546875) translate(119.12939453125 65.8984375)"/><use xlink:href="#k" transform="matrix(1,0,0,1,-1288,166.955810546875) translate(144.20263671875 65.8984375)"/><use xlink:href="#J" transform="matrix(1,0,0,1,-1288,166.955810546875) translate(163.54833984375 65.8984375)"/><use xlink:href="#K" transform="matrix(1,0,0,1,-1288,166.955810546875) translate(188.73876953125 65.8984375)"/><use xlink:href="#k" transform="matrix(1,0,0,1,-1288,166.955810546875) translate(213.81201171875 65.8984375)"/><use xlink:href="#L" transform="matrix(1,0,0,1,-1288,166.955810546875) translate(233.15771484375 65.8984375)"/><use xlink:href="#M" transform="matrix(1,0,0,1,-1288,166.955810546875) translate(258.23095703125 65.8984375)"/><use xlink:href="#N" transform="matrix(1,0,0,1,-1288,166.955810546875) translate(267.29541015625 65.8984375)"/><use xlink:href="#O" transform="matrix(1,0,0,1,-1288,166.955810546875) translate(278.13037109375 65.8984375)"/><use xlink:href="#m" transform="matrix(1,0,0,1,-1288,166.955810546875) translate(121.58984375 89.345703125)"/><use xlink:href="#P" transform="matrix(1,0,0,1,-1288,166.955810546875) translate(152.419921875 89.345703125)"/><use xlink:href="#Q" transform="matrix(1,0,0,1,-1288,166.955810546875) translate(121.384765625 112.79296875)"/><use xlink:href="#R" transform="matrix(1,0,0,1,-1288,166.955810546875) translate(152.625 112.79296875)"/><use xlink:href="#S" transform="matrix(1,0,0,1,-1288,166.955810546875) translate(121.8779296875 136.240234375)"/><use xlink:href="#T" transform="matrix(1,0,0,1,-1288,166.955810546875) translate(152.1318359375 136.240234375)"/></g><path d="M-1299.75 185.5a.25.25 0 0 1 .25-.26h319a.25.25 0 0 1 .25.25.25.25 0 0 1-.25.24h-319a.25.25 0 0 1-.25-.25z" stroke="#3a414a" stroke-width=".5" fill="none"/><path d="M-1201.45 165.04a6 6 0 0 1 6-6h110.9a6 6 0 0 1 6 6V179a6 6 0 0 1-6 6h-110.9a6 6 0 0 1-6-6z" stroke="#000" stroke-opacity="0" fill="#dfe3e8"/><g><use xlink:href="#U" transform="matrix(1,0,0,1,-1196.4498031496062,164.04164166666652) translate(31.67415364583334 14.780815972222218)"/><use xlink:href="#V" transform="matrix(1,0,0,1,-1196.4498031496062,164.04164166666652) translate(44.13075086805556 14.780815972222218)"/><use xlink:href="#ac" transform="matrix(1,0,0,1,-1196.4498031496062,164.04164166666652) translate(55.07584635416667 14.780815972222218)"/><use xlink:href="#ad" transform="matrix(1,0,0,1,-1196.4498031496062,164.04164166666652) translate(70.15288628472221 14.780815972222218)"/></g><path d="M-928.07 73.5v34.23a6 6 0 0 1-6 6H-1134a6 6 0 0 0-6 6v18.34" stroke="#3a414a" fill="none"/><path d="M-927.57 73.53h-1V73h1z" stroke="#3a414a" stroke-width=".05" fill="#3a414a"/><path d="M-1140 152.84l-4.63-14.27h9.27z" stroke="#3a414a" fill="#3a414a"/><path d="M-880 160.96a6 6 0 0 1 6-6h308a6 6 0 0 1 6 6v152.68a6 6 0 0 1-6 6h-308a6 6 0 0 1-6-6z" stroke="#000" fill="#fff"/><g><use xlink:href="#b" transform="matrix(1,0,0,1,-868,166.955810546875) translate(148 19.003906249999996)"/><use xlink:href="#c" transform="matrix(1,0,0,1,-868,166.955810546875) translate(62.34326171875 42.451171875)"/><use xlink:href="#Y" transform="matrix(1,0,0,1,-868,166.955810546875) translate(78.78857421875 42.451171875)"/><use xlink:href="#Z" transform="matrix(1,0,0,1,-868,166.955810546875) translate(107.81201171875 42.451171875)"/><use xlink:href="#ae" transform="matrix(1,0,0,1,-868,166.955810546875) translate(132.88525390625 42.451171875)"/><use xlink:href="#ab" transform="matrix(1,0,0,1,-868,166.955810546875) translate(167.21142578125 42.451171875)"/><use xlink:href="#j" transform="matrix(1,0,0,1,-868,166.955810546875) translate(10.12548828125 65.8984375)"/><use xlink:href="#k" transform="matrix(1,0,0,1,-868,166.955810546875) translate(74.59326171875 65.8984375)"/><use xlink:href="#H" transform="matrix(1,0,0,1,-868,166.955810546875) translate(93.93896484375 65.8984375)"/><use xlink:href="#I" transform="matrix(1,0,0,1,-868,166.955810546875) translate(119.12939453125 65.8984375)"/><use xlink:href="#k" transform="matrix(1,0,0,1,-868,166.955810546875) translate(144.20263671875 65.8984375)"/><use xlink:href="#J" transform="matrix(1,0,0,1,-868,166.955810546875) translate(163.54833984375 65.8984375)"/><use xlink:href="#K" transform="matrix(1,0,0,1,-868,166.955810546875) translate(188.73876953125 65.8984375)"/><use xlink:href="#k" transform="matrix(1,0,0,1,-868,166.955810546875) translate(213.81201171875 65.8984375)"/><use xlink:href="#L" transform="matrix(1,0,0,1,-868,166.955810546875) translate(233.15771484375 65.8984375)"/><use xlink:href="#M" transform="matrix(1,0,0,1,-868,166.955810546875) translate(258.23095703125 65.8984375)"/><use xlink:href="#N" transform="matrix(1,0,0,1,-868,166.955810546875) translate(267.29541015625 65.8984375)"/><use xlink:href="#O" transform="matrix(1,0,0,1,-868,166.955810546875) translate(278.13037109375 65.8984375)"/><use xlink:href="#m" transform="matrix(1,0,0,1,-868,166.955810546875) translate(121.58984375 89.345703125)"/><use xlink:href="#P" transform="matrix(1,0,0,1,-868,166.955810546875) translate(152.419921875 89.345703125)"/><use xlink:href="#Q" transform="matrix(1,0,0,1,-868,166.955810546875) translate(121.384765625 112.79296875)"/><use xlink:href="#R" transform="matrix(1,0,0,1,-868,166.955810546875) translate(152.625 112.79296875)"/><use xlink:href="#S" transform="matrix(1,0,0,1,-868,166.955810546875) translate(121.8779296875 136.240234375)"/><use xlink:href="#T" transform="matrix(1,0,0,1,-868,166.955810546875) translate(152.1318359375 136.240234375)"/></g><path d="M-879.75 185.5a.25.25 0 0 1 .25-.26h319a.25.25 0 0 1 .25.25.25.25 0 0 1-.25.24h-319a.25.25 0 0 1-.25-.25z" stroke="#3a414a" stroke-width=".5" fill="none"/><path d="M-800 165.04a6 6 0 0 1 6-6h148a6 6 0 0 1 6 6V179a6 6 0 0 1-6 6h-148a6 6 0 0 1-6-6z" stroke="#000" stroke-opacity="0" fill="#dfe3e8"/><g><use xlink:href="#af" transform="matrix(1,0,0,1,-795,164.04164166666652) translate(1.5554470486111143 14.780815972222218)"/></g><path d="M-880 87a6 6 0 0 1 6-6h108a6 6 0 0 1 6 6v23.25a6 6 0 0 1-6 6h-108a6 6 0 0 1-6-6z" stroke="#000" stroke-opacity="0" fill="#fff" fill-opacity="0"/><g><use xlink:href="#ag" transform="matrix(1,0,0,1,-875,86) translate(38.60185185185186 15.694444444444443)"/></g><path d="M-928.07 73.5v34.23a6 6 0 0 0 6 6H-726a6 6 0 0 1 6 6v18.34" stroke="#3a414a" fill="none"/><path d="M-927.57 73.53h-1V73h1z" stroke="#3a414a" stroke-width=".05" fill="#3a414a"/><path d="M-720 152.84l-4.63-14.27h9.26z" stroke="#3a414a" fill="#3a414a"/><path d="M-940 406a6 6 0 0 1 6-6h308a6 6 0 0 1 6 6v152.68a6 6 0 0 1-6 6h-308a6 6 0 0 1-6-6z" stroke="#000" fill="#fff"/><g><use xlink:href="#ah" transform="matrix(1,0,0,1,-928,412) translate(148 19.003906249999996)"/><use xlink:href="#ai" transform="matrix(1,0,0,1,-928,412) translate(19.177734375 42.451171875)"/><use xlink:href="#aj" transform="matrix(1,0,0,1,-928,412) translate(35.623046875 42.451171875)"/><use xlink:href="#ak" transform="matrix(1,0,0,1,-928,412) translate(64.646484375 42.451171875)"/><use xlink:href="#al" transform="matrix(1,0,0,1,-928,412) translate(89.7197265625 42.451171875)"/><use xlink:href="#am" transform="matrix(1,0,0,1,-928,412) translate(109.1044921875 42.451171875)"/><use xlink:href="#an" transform="matrix(1,0,0,1,-928,412) translate(179.9541015625 42.451171875)"/><use xlink:href="#ak" transform="matrix(1,0,0,1,-928,412) translate(195.4326171875 42.451171875)"/><use xlink:href="#ao" transform="matrix(1,0,0,1,-928,412) translate(220.505859375 42.451171875)"/><use xlink:href="#ap" transform="matrix(1,0,0,1,-928,412) translate(254.83203125 42.451171875)"/><use xlink:href="#aq" transform="matrix(1,0,0,1,-928,412) translate(10.12548828125 65.8984375)"/><use xlink:href="#ar" transform="matrix(1,0,0,1,-928,412) translate(74.59326171875 65.8984375)"/><use xlink:href="#as" transform="matrix(1,0,0,1,-928,412) translate(93.93896484375 65.8984375)"/><use xlink:href="#at" transform="matrix(1,0,0,1,-928,412) translate(119.12939453125 65.8984375)"/><use xlink:href="#ar" transform="matrix(1,0,0,1,-928,412) translate(144.20263671875 65.8984375)"/><use xlink:href="#au" transform="matrix(1,0,0,1,-928,412) translate(163.54833984375 65.8984375)"/><use xlink:href="#av" transform="matrix(1,0,0,1,-928,412) translate(188.73876953125 65.8984375)"/><use xlink:href="#ar" transform="matrix(1,0,0,1,-928,412) translate(213.81201171875 65.8984375)"/><use xlink:href="#aw" transform="matrix(1,0,0,1,-928,412) translate(233.15771484375 65.8984375)"/><use xlink:href="#ax" transform="matrix(1,0,0,1,-928,412) translate(258.23095703125 65.8984375)"/><use xlink:href="#ay" transform="matrix(1,0,0,1,-928,412) translate(267.29541015625 65.8984375)"/><use xlink:href="#az" transform="matrix(1,0,0,1,-928,412) translate(278.13037109375 65.8984375)"/><use xlink:href="#aA" transform="matrix(1,0,0,1,-928,412) translate(121.58984375 89.345703125)"/><use xlink:href="#aB" transform="matrix(1,0,0,1,-928,412) translate(152.419921875 89.345703125)"/><use xlink:href="#aC" transform="matrix(1,0,0,1,-928,412) translate(121.384765625 112.79296875)"/><use xlink:href="#aD" transform="matrix(1,0,0,1,-928,412) translate(152.625 112.79296875)"/><use xlink:href="#aE" transform="matrix(1,0,0,1,-928,412) translate(121.8779296875 136.240234375)"/><use xlink:href="#aF" transform="matrix(1,0,0,1,-928,412) translate(152.1318359375 136.240234375)"/></g><path d="M-939.75 430.54a.25.25 0 0 1 .25-.25h319a.25.25 0 0 1 .25.24.25.25 0 0 1-.25.25h-319a.25.25 0 0 1-.25-.26z" stroke="#3a414a" stroke-width=".5" fill="none"/><path d="M-880 410.1a6 6 0 0 1 6-6h188a6 6 0 0 1 6 6v13.94a6 6 0 0 1-6 6h-188a6 6 0 0 1-6-6z" stroke="#000" stroke-opacity="0" fill="#dfe3e8"/><g><use xlink:href="#aG" transform="matrix(1,0,0,1,-875,409.08583111979164) translate(0.6108940972222285 14.780815972222218)"/></g><path d="M-1089.52 336.85a6 6 0 0 1 6-6h108a6 6 0 0 1 6 6v23.25a6 6 0 0 1-6 6h-108a6 6 0 0 1-6-6z" stroke="#000" stroke-opacity="0" fill="#fff" fill-opacity="0"/><g><use xlink:href="#ag" transform="matrix(1,0,0,1,-1084.5167322834645,335.853847015625) translate(38.60185185185186 15.694444444444443)"/></g><path d="M-1300 406a6 6 0 0 1 6-6h308a6 6 0 0 1 6 6v152.68a6 6 0 0 1-6 6h-308a6 6 0 0 1-6-6z" stroke="#000" fill="#fff"/><g><use xlink:href="#ah" transform="matrix(1,0,0,1,-1288,412) translate(148 19.003906249999996)"/><use xlink:href="#ai" transform="matrix(1,0,0,1,-1288,412) translate(26.6484375 42.451171875)"/><use xlink:href="#aj" transform="matrix(1,0,0,1,-1288,412) translate(43.09375 42.451171875)"/><use xlink:href="#ak" transform="matrix(1,0,0,1,-1288,412) translate(72.1171875 42.451171875)"/><use xlink:href="#al" transform="matrix(1,0,0,1,-1288,412) translate(97.1904296875 42.451171875)"/><use xlink:href="#am" transform="matrix(1,0,0,1,-1288,412) translate(116.5751953125 42.451171875)"/><use xlink:href="#an" transform="matrix(1,0,0,1,-1288,412) translate(187.4248046875 42.451171875)"/><use xlink:href="#ak" transform="matrix(1,0,0,1,-1288,412) translate(202.9033203125 42.451171875)"/><use xlink:href="#aH" transform="matrix(1,0,0,1,-1288,412) translate(227.9765625 42.451171875)"/><use xlink:href="#ap" transform="matrix(1,0,0,1,-1288,412) translate(247.361328125 42.451171875)"/><use xlink:href="#aq" transform="matrix(1,0,0,1,-1288,412) translate(10.12548828125 65.8984375)"/><use xlink:href="#ar" transform="matrix(1,0,0,1,-1288,412) translate(74.59326171875 65.8984375)"/><use xlink:href="#as" transform="matrix(1,0,0,1,-1288,412) translate(93.93896484375 65.8984375)"/><use xlink:href="#at" transform="matrix(1,0,0,1,-1288,412) translate(119.12939453125 65.8984375)"/><use xlink:href="#ar" transform="matrix(1,0,0,1,-1288,412) translate(144.20263671875 65.8984375)"/><use xlink:href="#au" transform="matrix(1,0,0,1,-1288,412) translate(163.54833984375 65.8984375)"/><use xlink:href="#av" transform="matrix(1,0,0,1,-1288,412) translate(188.73876953125 65.8984375)"/><use xlink:href="#ar" transform="matrix(1,0,0,1,-1288,412) translate(213.81201171875 65.8984375)"/><use xlink:href="#aw" transform="matrix(1,0,0,1,-1288,412) translate(233.15771484375 65.8984375)"/><use xlink:href="#ax" transform="matrix(1,0,0,1,-1288,412) translate(258.23095703125 65.8984375)"/><use xlink:href="#ay" transform="matrix(1,0,0,1,-1288,412) translate(267.29541015625 65.8984375)"/><use xlink:href="#az" transform="matrix(1,0,0,1,-1288,412) translate(278.13037109375 65.8984375)"/><use xlink:href="#aA" transform="matrix(1,0,0,1,-1288,412) translate(121.58984375 89.345703125)"/><use xlink:href="#aB" transform="matrix(1,0,0,1,-1288,412) translate(152.419921875 89.345703125)"/><use xlink:href="#aC" transform="matrix(1,0,0,1,-1288,412) translate(121.384765625 112.79296875)"/><use xlink:href="#aD" transform="matrix(1,0,0,1,-1288,412) translate(152.625 112.79296875)"/><use xlink:href="#aE" transform="matrix(1,0,0,1,-1288,412) translate(121.8779296875 136.240234375)"/><use xlink:href="#aF" transform="matrix(1,0,0,1,-1288,412) translate(152.1318359375 136.240234375)"/></g><path d="M-1299.75 430.54a.25.25 0 0 1 .25-.25h319a.25.25 0 0 1 .25.24.25.25 0 0 1-.25.25h-319a.25.25 0 0 1-.25-.26z" stroke="#3a414a" stroke-width=".5" fill="none"/><path d="M-1240 410.1a6 6 0 0 1 6-6h188a6 6 0 0 1 6 6v13.94a6 6 0 0 1-6 6h-188a6 6 0 0 1-6-6z" stroke="#000" stroke-opacity="0" fill="#dfe3e8"/><g><use xlink:href="#aI" transform="matrix(1,0,0,1,-1235,409.08583111979164) translate(-2.902018229166657 14.780815972222218)"/></g><path d="M-1240 336.85a6 6 0 0 1 6-6h108a6 6 0 0 1 6 6v23.25a6 6 0 0 1-6 6h-108a6 6 0 0 1-6-6z" stroke="#000" stroke-opacity="0" fill="#fff" fill-opacity="0"/><g><use xlink:href="#a" transform="matrix(1,0,0,1,-1235,335.853847015625) translate(41.626543209876544 15.694444444444443)"/></g><path d="M-1140 320.64v33.18a6 6 0 0 0 6 6h348a6 6 0 0 1 6 6v17.3" stroke="#3a414a" fill="none"/><path d="M-1139.5 320.65h-1v-.5h1z" stroke="#3a414a" stroke-width=".05" fill="#3a414a"/><path d="M-780 397.88l-4.63-14.26h9.26z" stroke="#3a414a" fill="#3a414a"/><path d="M-1140 320.64v62.48" stroke="#3a414a" fill="none"/><path d="M-1139.5 320.65h-1v-.5h1z" stroke="#3a414a" stroke-width=".05" fill="#3a414a"/><path d="M-1140 397.88l-4.63-14.26h9.27z" stroke="#3a414a" fill="#3a414a"/><defs><path d="M51-54c-9 22 5 41 31 30L79-1C43 14 10-4 19-52l22-115H19l5-23h22l19-43h21l-9 43h35l-4 23H73" id="aJ"/><path d="M66-151c12-25 30-51 66-40l-6 26C45-176 58-65 38 0H6l36-190h30" id="aK"/><path d="M67 3c-93-2-31-127-26-193h32L48-50c-3 39 53 32 70 12 30-34 30-101 43-152h32L157 0h-30c1-10 6-24 4-33-14 20-29 37-64 36" id="aL"/><path d="M111-194c62-3 86 47 72 106H45c-7 38 6 69 45 68 27-1 43-14 53-32l24 11C152-15 129 4 87 4 38 3 12-23 12-71c0-70 32-119 99-123zm44 81c14-66-71-72-95-28-4 8-8 17-11 28h106" id="aM"/><g id="a"><use transform="matrix(0.04320987654320987,0,0,0.04320987654320987,0,0)" xlink:href="#aJ"/><use transform="matrix(0.04320987654320987,0,0,0.04320987654320987,4.320987654320986,0)" xlink:href="#aK"/><use transform="matrix(0.04320987654320987,0,0,0.04320987654320987,9.462962962962962,0)" xlink:href="#aL"/><use transform="matrix(0.04320987654320987,0,0,0.04320987654320987,18.104938271604937,0)" xlink:href="#aM"/></g><path d="M940 16c-137 0-171-95-171-253v-584H462V0H261v-49c51-175 67-482 62-772-143-3-180 28-248 115l-62-54c106-134 130-196 327-196h843v135H941v600c-3 157 94 158 178 81l39 60c-75 64-147 96-218 96" id="aN"/><use transform="matrix(0.009765625,0,0,0.009765625,0,0)" xlink:href="#aN" id="c"/><path d="M370-903v234H170v-234h200zm0 671V0H170v-232h200" id="aO"/><path d="M149-726v-133h1232v133H149zm0 415v-133h1232v133H149" id="aP"/><g id="d"><use transform="matrix(0.009765625,0,0,0.009765625,0,0)" xlink:href="#aO"/><use transform="matrix(0.009765625,0,0,0.009765625,5.2734375,0)" xlink:href="#aP"/></g><path d="M12-762c113-138 131-196 330-196h590v135H549v573C540-75 694-51 795-143l41 59C752-17 675 16 604 16c-164-2-227-83-227-254v-585h-88c-124 2-150 39-213 114" id="aQ"/><use transform="matrix(0.009765625,0,0,0.009765625,0,0)" xlink:href="#aQ" id="e"/><path d="M530 16c-259 0-430-188-430-448 0-254 121-422 301-484 182-62 481-36 725-42v135H766v8c142 84 213 213 213 387 0 268-182 444-449 444zM287-430c0 201 68 367 245 367 174 0 261-120 261-359 0-164-52-296-156-397-233 0-350 130-350 389" id="aR"/><path d="M122-637c3-381 153-653 526-653 69 0 130 10 184 29l76-190h116l-95 238c157 102 237 312 235 576-3 381-153 653-526 653-68 0-130-10-185-29l-75 189H262l94-236C199-163 120-370 122-637zm294 425l362-912c-154-59-323-18-400 103-56 88-88 215-88 384 0 197 42 338 126 425zm453-849L507-150c152 59 324 17 401-104 56-89 88-214 88-383 0-195-42-337-127-424" id="aS"/><g id="f"><use transform="matrix(0.009765625,0,0,0.009765625,0,0)" xlink:href="#aR"/><use transform="matrix(0.009765625,0,0,0.009765625,11.435546875,0)" xlink:href="#aO"/><use transform="matrix(0.009765625,0,0,0.009765625,16.708984375,0)" xlink:href="#aP"/><use transform="matrix(0.009765625,0,0,0.009765625,31.650390625,0)" xlink:href="#aS"/></g><path d="M290-156c-31 53 5 108 67 107V0H23v-49c90-35 124-84 186-160l208-258c-92-121-185-267-283-379-28-32-53-49-92-61v-49h392v49c-111 8-77 101-36 159l122 171c53-72 118-138 164-217 31-54 5-110-57-113v-49h327v49c-79 30-113 71-174 146L573-507l228 307c55 71 92 118 166 151V0H565v-49c104-3 92-88 50-146L470-397c-59 80-129 154-180 241" id="aT"/><use transform="matrix(0.007595486111111109,0,0,0.007595486111111109,0,0)" xlink:href="#aT" id="g"/><use transform="matrix(0.007595486111111109,0,0,0.007595486111111109,0,0)" xlink:href="#aP" id="h"/><path d="M383-1348v194H199v-194h184zm-6 1098c-2 134 9 178 112 201V0H97v-49c96-19 109-76 108-198-1-177 2-366-2-539-3-83-44-105-120-117v-53c98-3 192-10 294-9v715" id="aU"/><path d="M958-250c-4 129 10 181 113 201V0H677v-49c96-19 109-76 109-197v-262c-2-178-1-345-178-344-100 1-172 79-212 144-14 24-19 53-19 85v373c-2 134 9 178 112 201V0H97v-49c96-19 109-76 108-198-1-177 2-366-2-539-3-83-44-105-120-117v-53c98-3 193-10 295-9l-11 163 14 4c83-81 117-117 211-156 31-13 64-18 99-18 204 2 267 132 267 345v377" id="aV"/><path d="M612 16c-98 1-176-18-244-46v211c-4 128 15 186 123 200v49H83v-49c63-16 107-35 109-107 12-342 6-707 2-1054-1-86-41-110-121-123v-53c99-3 194-10 296-9l-13 163 15 4c97-94 155-174 322-174 250 0 344 206 342 485-1 306-128 499-423 503zM368-360c-7 197 51 296 236 297 81 0 141-34 182-101s61-165 61-296c0-261-76-392-229-392-120 0-192 74-234 150-13 23-16 50-16 78v264" id="aW"/><path d="M185-707c-1-136-2-175-112-200v-49h285c4 221-13 485 9 687 11 106 54 165 169 165 99 0 173-77 212-142 14-24 19-53 19-86v-375c4-122-12-185-113-200v-49h285c2 262-8 538 3 794 3 79 40 95 119 110V0c-97 3-189 11-290 10l6-164-15-4C671-64 598 16 452 16c-204 0-267-127-267-345v-378" id="aX"/><path d="M440 16C252 16 185-99 185-300v-555H37v-51c149-22 159-138 178-297h142v247h323v101H357v445c1 167 5 305 160 305 65 0 104-29 144-64l45 54C626-41 565 16 440 16" id="aY"/><path d="M812-1368c-322 104-459 429-459 862 0 443 133 773 456 881l-24 77C399 358 180-17 180-496c0-478 221-855 605-949" id="aZ"/><path d="M41 375C364 267 497-64 497-506c-1-434-136-758-459-862l27-77c384 94 605 471 605 949 0 479-219 854-605 948" id="ba"/><g id="i"><use transform="matrix(0.007595486111111109,0,0,0.007595486111111109,0,0)" xlink:href="#aU"/><use transform="matrix(0.007595486111111109,0,0,0.007595486111111109,4.321831597222221,0)" xlink:href="#aV"/><use transform="matrix(0.007595486111111109,0,0,0.007595486111111109,13.00347222222222,0)" xlink:href="#aW"/><use transform="matrix(0.007595486111111109,0,0,0.007595486111111109,21.65473090277777,0)" xlink:href="#aX"/><use transform="matrix(0.007595486111111109,0,0,0.007595486111111109,30.245225694444436,0)" xlink:href="#aY"/><use transform="matrix(0.007595486111111109,0,0,0.007595486111111109,35.508897569444436,0)" xlink:href="#aZ"/><use transform="matrix(0.007595486111111109,0,0,0.007595486111111109,41.96506076388888,0)" xlink:href="#ba"/></g><path d="M286-300c0-104-77-158-191-159v-82c114-1 191-55 191-159 0-63-49-253-47-331 8-299 181-420 494-418v76c-215-1-324 99-324 324 0 71 40 257 40 320 0 118-84 187-169 220v18c85 33 169 102 169 220 0 63-40 249-40 320 0 234 104 333 324 333v76c-318 1-487-119-494-427-2-78 47-267 47-331" id="bb"/><path d="M1354-535c-5 355-211 538-566 547v420H621V12C276-3 104-151 104-432c0-209 117-391 351-545l59 70C368-794 295-644 295-455c0 239 109 367 326 385v-434c-3-264 115-469 364-469 229 0 372 188 369 438zM788-66c253-14 379-172 379-473 0-111-20-195-53-258-54-101-186-127-259-41-83 98-67 196-67 404v368" id="bc"/><path d="M514-1072c0-47-13-75-55-77-21 0-52 11-91 33s-88 52-146 91l-44-77 468-279h55c-12 346 9 760-6 1120C688-78 806-79 974-73V0H235v-73c117-8 170-1 231-39 44-27 47-67 48-149v-811" id="bd"/><g id="j"><use transform="matrix(0.009765625,0,0,0.009765625,0,0)" xlink:href="#aR"/><use transform="matrix(0.009765625,0,0,0.009765625,11.435546875,0)" xlink:href="#aO"/><use transform="matrix(0.009765625,0,0,0.009765625,16.708984375,0)" xlink:href="#aP"/><use transform="matrix(0.009765625,0,0,0.009765625,31.650390625,0)" xlink:href="#bb"/><use transform="matrix(0.009765625,0,0,0.009765625,39.39453125,0)" xlink:href="#bc"/><use transform="matrix(0.0068359375,0,0,0.0068359375,53.6328125,3.32568359375)" xlink:href="#bd"/></g><use transform="matrix(0.009765625,0,0,0.009765625,0,0)" xlink:href="#aP" id="k"/><path d="M511-973c201 0 255 97 321 261h15l70-244h164v49c-48 74-112 211-192 411 14 135 30 236 49 304 33 121 103 127 187 56l39 59c-71 62-143 93-214 93-102 0-163-93-184-280h-11C664-77 552 16 419 16c-99 0-177-41-232-123s-83-199-83-351c0-277 159-515 407-515zm239 490c-18-150-45-256-80-318s-85-93-151-93c-71 0-127 39-169 116s-63 179-63 307c0 246 61 369 183 369 130 0 223-127 280-381" id="be"/><path d="M507-699c0 104 77 158 191 159v82c-114 1-191 55-191 159 0 63 49 253 47 331-7 307-177 427-494 426v-76c219 0 324-100 324-332 0-71-40-257-40-320 0-118 84-187 169-220v-18c-85-33-169-102-169-220 0-63 40-249 40-320 0-226-108-326-324-325v-76c314-2 486 119 494 419 2 78-47 267-47 331" id="bf"/><g id="l"><use transform="matrix(0.009765625,0,0,0.009765625,0,0)" xlink:href="#be"/><use transform="matrix(0.0068359375,0,0,0.0068359375,11.484375,3.32568359375)" xlink:href="#bd"/><use transform="matrix(0.009765625,0,0,0.009765625,19.236328125,0)" xlink:href="#bf"/></g><path d="M115-652h1263l-229-291 59-55 393 381v64l-393 381-59-55 229-292H115v-133" id="bg"/><g id="m"><use transform="matrix(0.009765625,0,0,0.009765625,0,0)" xlink:href="#aT"/><use transform="matrix(0.009765625,0,0,0.009765625,9.66796875,0)" xlink:href="#bg"/></g><g id="n"><use transform="matrix(0.009765625,0,0,0.009765625,0,0)" xlink:href="#bc"/><use transform="matrix(0.0068359375,0,0,0.0068359375,14.238281249999998,3.32568359375)" xlink:href="#bd"/></g><path d="M765-807c-3-71-39-83-105-100v-49h374v49c-97 21-113 88-152 176L520 82c-64 139-115 246-222 317-73 48-168 46-272 26V227h89c16 48 27 73 82 73 96 0 116-65 163-137 25-38 48-88 77-147L157-737c-41-95-42-144-137-170v-49h407v49c-64 16-103 23-103 91 0 49 12 80 27 124l178 501c75-185 159-363 227-553 8-22 9-44 9-63" id="bh"/><use transform="matrix(0.007595486111111109,0,0,0.007595486111111109,0,0)" xlink:href="#bh" id="o"/><use transform="matrix(0.009765624999999998,0,0,0.009765624999999998,0,0)" xlink:href="#aN" id="q"/><g id="r"><use transform="matrix(0.009765624999999998,0,0,0.009765624999999998,0,0)" xlink:href="#aO"/><use transform="matrix(0.009765624999999998,0,0,0.009765624999999998,5.273437499999999,0)" xlink:href="#aP"/></g><use transform="matrix(0.009765624999999998,0,0,0.009765624999999998,0,0)" xlink:href="#aQ" id="s"/><g id="t"><use transform="matrix(0.009765624999999998,0,0,0.009765624999999998,0,0)" xlink:href="#aR"/><use transform="matrix(0.009765624999999998,0,0,0.009765624999999998,11.435546874999998,0)" xlink:href="#aO"/><use transform="matrix(0.009765624999999998,0,0,0.009765624999999998,16.708984374999996,0)" xlink:href="#aP"/><use transform="matrix(0.009765624999999998,0,0,0.009765624999999998,31.650390624999993,0)" xlink:href="#bb"/><use transform="matrix(0.009765624999999998,0,0,0.009765624999999998,39.39453124999999,0)" xlink:href="#bc"/><use transform="matrix(0.006835937499999998,0,0,0.006835937499999998,53.63281249999999,3.325683593749999)" xlink:href="#bd"/></g><use transform="matrix(0.009765624999999998,0,0,0.009765624999999998,0,0)" xlink:href="#aP" id="u"/><path d="M24 215c84-75 118-143 117-297 0-51-2-101-7-150h175c18 92 24 190-10 266-47 106-120 164-221 242" id="bi"/><g id="v"><use transform="matrix(0.009765624999999998,0,0,0.009765624999999998,0,0)" xlink:href="#be"/><use transform="matrix(0.006835937499999998,0,0,0.006835937499999998,11.484374999999998,3.325683593749999)" xlink:href="#bd"/><use transform="matrix(0.006835937499999998,0,0,0.006835937499999998,19.236328124999996,3.325683593749999)" xlink:href="#bi"/></g><path d="M575-1381c268-10 421 149 365 415-25 119-105 200-177 284-30 35-84 91-159 171-127 134-220 251-279 351 150-3 318 12 456-6 71-10 79-58 103-126h85L952 0H129v-48c84-191 173-305 323-474 122-137 179-192 250-318 33-59 52-113 52-193 0-153-69-256-222-256-125 0-209 69-252 208H159v-192c130-61 257-103 416-108" id="bj"/><g id="w"><use transform="matrix(0.009765624999999998,0,0,0.009765624999999998,0,0)" xlink:href="#bc"/><use transform="matrix(0.006835937499999998,0,0,0.006835937499999998,14.238281249999998,3.325683593749999)" xlink:href="#bj"/></g><g id="x"><use transform="matrix(0.009765624999999998,0,0,0.009765624999999998,0,0)" xlink:href="#be"/><use transform="matrix(0.006835937499999998,0,0,0.006835937499999998,11.484374999999998,3.325683593749999)" xlink:href="#bj"/><use transform="matrix(0.009765624999999998,0,0,0.009765624999999998,19.236328124999996,0)" xlink:href="#bf"/></g><g id="y"><use transform="matrix(0.009765624999999998,0,0,0.009765624999999998,0,0)" xlink:href="#aT"/><use transform="matrix(0.009765624999999998,0,0,0.009765624999999998,9.667968749999998,0)" xlink:href="#bg"/></g><g id="z"><use transform="matrix(0.009765624999999998,0,0,0.009765624999999998,0,0)" xlink:href="#bc"/><use transform="matrix(0.006835937499999998,0,0,0.006835937499999998,14.238281249999998,3.325683593749999)" xlink:href="#bd"/></g><g id="A"><use transform="matrix(0.009765624999999998,0,0,0.009765624999999998,0,0)" xlink:href="#bh"/><use transform="matrix(0.009765624999999998,0,0,0.009765624999999998,10.078124999999998,0)" xlink:href="#bg"/></g><g id="B"><use transform="matrix(0.009765624999999998,0,0,0.009765624999999998,0,0)" xlink:href="#bc"/><use transform="matrix(0.006835937499999998,0,0,0.006835937499999998,14.238281249999998,3.325683593749999)" xlink:href="#bj"/></g><path d="M561-81c156 3 159-87 203-209h87V0H81v-49l548-826H358c-125 3-143 93-184 191H87v-272h758v50L298-81h263" id="bk"/><use transform="matrix(0.007595486111111109,0,0,0.007595486111111109,0,0)" xlink:href="#bk" id="C"/><use transform="matrix(0.007595486111111109,0,0,0.007595486111111109,0,0)" xlink:href="#aP" id="D"/><use transform="matrix(0.007595486111111109,0,0,0.007595486111111109,0,0)" xlink:href="#bj" id="E"/><path d="M797-920l-65 111-257-181 29 313H372l30-313-258 181-66-111 286-134-286-133 66-112 258 181-30-313h132l-29 313 257-181 65 112-285 133" id="bl"/><use transform="matrix(0.007595486111111109,0,0,0.007595486111111109,0,0)" xlink:href="#bl" id="F"/><use transform="matrix(0.007595486111111109,0,0,0.007595486111111109,0,0)" xlink:href="#bh" id="G"/><g id="H"><use transform="matrix(0.009765625,0,0,0.009765625,0,0)" xlink:href="#be"/><use transform="matrix(0.0068359375,0,0,0.0068359375,11.484375,3.32568359375)" xlink:href="#bd"/><use transform="matrix(0.0068359375,0,0,0.0068359375,19.236328125,3.32568359375)" xlink:href="#bi"/></g><g id="I"><use transform="matrix(0.009765625,0,0,0.009765625,0,0)" xlink:href="#bc"/><use transform="matrix(0.0068359375,0,0,0.0068359375,14.238281249999998,3.32568359375)" xlink:href="#bj"/></g><g id="J"><use transform="matrix(0.009765625,0,0,0.009765625,0,0)" xlink:href="#be"/><use transform="matrix(0.0068359375,0,0,0.0068359375,11.484375,3.32568359375)" xlink:href="#bj"/><use transform="matrix(0.0068359375,0,0,0.0068359375,19.236328125,3.32568359375)" xlink:href="#bi"/></g><path d="M519-1289c-143 2-206 83-240 207H159v-190c130-60 248-109 412-109 212 0 373 86 373 292 0 209-136 280-289 356v9c175 38 315 133 315 340 0 267-182 400-458 400-127 0-272-33-368-71v-212h120c45 124 97 198 249 198 177 0 264-100 263-281-1-205-132-302-346-300h-90v-88c225-17 403-99 410-320 5-148-82-233-231-231" id="bm"/><g id="K"><use transform="matrix(0.009765625,0,0,0.009765625,0,0)" xlink:href="#bc"/><use transform="matrix(0.0068359375,0,0,0.0068359375,14.238281249999998,3.32568359375)" xlink:href="#bm"/></g><g id="L"><use transform="matrix(0.009765625,0,0,0.009765625,0,0)" xlink:href="#bc"/><use transform="matrix(0.0068359375,0,0,0.0068359375,14.238281249999998,3.32568359375)" xlink:href="#bj"/></g><use transform="matrix(0.0068359375,0,0,0.0068359375,0,3.32568359375)" xlink:href="#bl" id="M"/><use transform="matrix(0.0068359375,0,0,0.0068359375,0,3.32568359375)" xlink:href="#bj" id="N"/><use transform="matrix(0.009765625,0,0,0.009765625,0,0)" xlink:href="#bf" id="O"/><g id="P"><use transform="matrix(0.009765625,0,0,0.009765625,0,0)" xlink:href="#bc"/><use transform="matrix(0.0068359375,0,0,0.0068359375,14.238281249999998,3.32568359375)" xlink:href="#bd"/></g><g id="Q"><use transform="matrix(0.009765625,0,0,0.009765625,0,0)" xlink:href="#bh"/><use transform="matrix(0.009765625,0,0,0.009765625,10.078125,0)" xlink:href="#bg"/></g><g id="R"><use transform="matrix(0.009765625,0,0,0.009765625,0,0)" xlink:href="#bc"/><use transform="matrix(0.0068359375,0,0,0.0068359375,14.238281249999998,3.32568359375)" xlink:href="#bj"/></g><g id="S"><use transform="matrix(0.009765625,0,0,0.009765625,0,0)" xlink:href="#bk"/><use transform="matrix(0.009765625,0,0,0.009765625,9.091796875,0)" xlink:href="#bg"/></g><g id="T"><use transform="matrix(0.009765625,0,0,0.009765625,0,0)" xlink:href="#bc"/><use transform="matrix(0.0068359375,0,0,0.0068359375,14.238281249999998,3.32568359375)" xlink:href="#bm"/></g><path d="M528-1352c-177 0-153 211-156 396h239v101H372v605c-3 127 17 186 124 201V0H87v-49c102-19 113-74 113-201v-605H79v-51c95-3 115-55 120-150 11-198 101-308 253-360 73-25 210-25 291-9v181h-99c-24-67-39-108-116-108" id="bn"/><g id="U"><use transform="matrix(0.007595486111111109,0,0,0.007595486111111109,0,0)" xlink:href="#aU"/><use transform="matrix(0.007595486111111109,0,0,0.007595486111111109,4.321831597222221,0)" xlink:href="#bn"/></g><use transform="matrix(0.007595486111111109,0,0,0.007595486111111109,0,0)" xlink:href="#aT" id="V"/><path d="M149 36v-150l1086-471-1086-471v-150l1236 551v140" id="bo"/><use transform="matrix(0.007595486111111109,0,0,0.007595486111111109,0,0)" xlink:href="#bo" id="W"/><path d="M556 16c-144 0-252-57-322-170S129-439 129-670c0-227 38-410 123-540 67-102 168-171 320-171 146 0 255 56 326 169s107 283 107 511c0 236-39 414-115 535S703 16 556 16zM376-1137c-79 214-64 737 8 915C425-121 487-69 572-69c81 0 136-49 180-143 67-144 71-624 28-818-21-95-50-161-84-204-59-74-174-82-244-21-31 27-57 67-76 118" id="bp"/><g id="X"><use transform="matrix(0.007595486111111109,0,0,0.007595486111111109,0,0)" xlink:href="#bd"/><use transform="matrix(0.007595486111111109,0,0,0.007595486111111109,8.613281249999998,0)" xlink:href="#bp"/><use transform="matrix(0.007595486111111109,0,0,0.007595486111111109,17.226562499999996,0)" xlink:href="#bp"/><use transform="matrix(0.007595486111111109,0,0,0.007595486111111109,25.839843749999993,0)" xlink:href="#bp"/><use transform="matrix(0.007595486111111109,0,0,0.007595486111111109,34.45312499999999,0)" xlink:href="#bp"/><use transform="matrix(0.007595486111111109,0,0,0.007595486111111109,43.06640624999999,0)" xlink:href="#bp"/><use transform="matrix(0.007595486111111109,0,0,0.007595486111111109,51.67968749999999,0)" xlink:href="#aO"/></g><g id="Y"><use transform="matrix(0.009765625,0,0,0.009765625,0,0)" xlink:href="#aO"/><use transform="matrix(0.009765625,0,0,0.009765625,5.2734375,0)" xlink:href="#aP"/></g><g id="Z"><use transform="matrix(0.009765625,0,0,0.009765625,0,0)" xlink:href="#bc"/><use transform="matrix(0.0068359375,0,0,0.0068359375,14.238281249999998,3.32568359375)" xlink:href="#bd"/></g><use transform="matrix(0.009765625,0,0,0.009765625,0,0)" xlink:href="#bo" id="aa"/><g id="ab"><use transform="matrix(0.009765625,0,0,0.009765625,0,0)" xlink:href="#bd"/><use transform="matrix(0.009765625,0,0,0.009765625,11.07421875,0)" xlink:href="#bp"/><use transform="matrix(0.009765625,0,0,0.009765625,22.1484375,0)" xlink:href="#bp"/><use transform="matrix(0.009765625,0,0,0.009765625,33.22265625,0)" xlink:href="#bp"/><use transform="matrix(0.009765625,0,0,0.009765625,44.296875,0)" xlink:href="#bp"/><use transform="matrix(0.009765625,0,0,0.009765625,55.37109375,0)" xlink:href="#bp"/></g><path d="M149-515v-140l1236-551v150L299-585l1086 471V36" id="bq"/><use transform="matrix(0.007595486111111109,0,0,0.007595486111111109,0,0)" xlink:href="#bq" id="ac"/><g id="ad"><use transform="matrix(0.007595486111111109,0,0,0.007595486111111109,0,0)" xlink:href="#bk"/><use transform="matrix(0.007595486111111109,0,0,0.007595486111111109,7.071397569444443,0)" xlink:href="#aO"/></g><g id="ae"><use transform="matrix(0.009765625,0,0,0.009765625,0,0)" xlink:href="#bq"/><use transform="matrix(0.009765625,0,0,0.009765625,14.98046875,0)" xlink:href="#aP"/></g><path d="M98-49c95-20 108-75 107-198-2-177 2-366-2-539-3-83-44-105-120-117v-52c98-3 193-11 295-10l-11 175 14 3c87-101 156-186 327-186 39 0 74 2 105 6v230H700c-30-61-47-103-125-103-93 0-155 88-185 157-10 23-13 51-13 83v350c-2 138 14 183 124 201V0H98v-49" id="br"/><path d="M0 241V125h759v116H0" id="bs"/><path d="M98-49c95-20 108-75 107-198-2-177 2-366-2-539-3-83-44-105-120-117v-53c98-3 193-10 295-9l-11 163 14 4c82-80 129-139 241-166 163-40 286 42 314 179 85-83 121-125 216-167 32-14 68-20 105-20 203 4 262 130 262 345v377c-3 131 9 180 112 201V0h-393v-49c96-19 109-76 109-197v-262c-3-182 2-344-173-344-101 0-170 78-208 146-14 25-18 56-18 91v365c-3 131 9 180 112 201V0H667v-49c96-19 109-76 109-197v-262c-3-181 2-344-173-344-101 0-167 77-207 145-14 24-19 53-19 82 2 151-4 317 3 462 4 77 43 96 110 114V0H98v-49" id="bt"/><path d="M982-491C980-178 837 16 532 16c-291 0-429-181-427-485 3-306 148-500 443-504 293-4 435 182 434 482zM358-789c-81 129-75 487 2 615C423-70 555-28 661-96c98-63 131-204 132-366 1-173-34-314-121-386-100-83-248-46-314 59" id="bu"/><path d="M550-973c210 0 279 102 279 324 0 165-12 359 7 509 8 63 45 73 108 91V0H670l5-143-15-4C561-51 492 16 334 16 181 16 80-69 80-220c0-97 48-173 144-226s241-83 434-92c5-195-11-349-198-345-117 2-167 66-197 164H132v-130c139-70 234-124 418-124zM417-97c134-3 241-92 241-218v-141c-135 1-237 19-304 54s-101 87-101 157c1 105 60 150 164 148" id="bv"/><path d="M551-973c115 0 200 13 291 40v209H715c-28-99-62-176-182-170-189 9-241 197-241 407 0 209 44 382 249 382 123 0 179-47 252-122l57 66C759-61 671 16 494 16c-272 0-393-197-389-488 4-295 156-501 446-501" id="bw"/><path d="M541-973c97 0 159 15 231 45-3-116 10-272-10-358-14-62-46-70-119-83v-52c101-3 197-11 301-10 2 422-9 852 3 1269 2 79 42 94 120 110V0c-99 3-193 11-296 10l12-164-15-4C694-81 653-41 560-4c-35 14-73 20-113 20-248 0-344-208-342-484 3-302 147-505 436-505zm14 80c-197 0-263 175-262 397 0 128 22 223 55 292 50 105 197 129 297 68 74-45 127-107 127-233v-224c6-186-42-300-217-300" id="bx"/><path d="M557-105c135 0 201-51 278-130l61 65C795-67 708 16 520 16c-290 0-419-185-416-488 3-293 148-501 434-501 287 0 374 188 378 480H286c-3 225 56 388 271 388zm171-471c-8-128-23-225-90-282-80-68-217-38-274 46-38 57-66 134-73 236h437" id="by"/><g id="af"><use transform="matrix(0.007595486111111109,0,0,0.007595486111111109,0,0)" xlink:href="#br"/><use transform="matrix(0.007595486111111109,0,0,0.007595486111111109,6.43337673611111,0)" xlink:href="#aX"/><use transform="matrix(0.007595486111111109,0,0,0.007595486111111109,15.023871527777775,0)" xlink:href="#aV"/><use transform="matrix(0.007595486111111109,0,0,0.007595486111111109,23.70551215277777,0)" xlink:href="#bs"/><use transform="matrix(0.007595486111111109,0,0,0.007595486111111109,29.470486111111104,0)" xlink:href="#aU"/><use transform="matrix(0.007595486111111109,0,0,0.007595486111111109,33.79231770833333,0)" xlink:href="#bt"/><use transform="matrix(0.007595486111111109,0,0,0.007595486111111109,46.73502604166666,0)" xlink:href="#aW"/><use transform="matrix(0.007595486111111109,0,0,0.007595486111111109,55.386284722222214,0)" xlink:href="#bu"/><use transform="matrix(0.007595486111111109,0,0,0.007595486111111109,63.642578124999986,0)" xlink:href="#br"/><use transform="matrix(0.007595486111111109,0,0,0.007595486111111109,70.0759548611111,0)" xlink:href="#aY"/><use transform="matrix(0.007595486111111109,0,0,0.007595486111111109,75.3396267361111,0)" xlink:href="#bv"/><use transform="matrix(0.007595486111111109,0,0,0.007595486111111109,82.93511284722221,0)" xlink:href="#aV"/><use transform="matrix(0.007595486111111109,0,0,0.007595486111111109,91.61675347222221,0)" xlink:href="#aY"/><use transform="matrix(0.007595486111111109,0,0,0.007595486111111109,96.88042534722221,0)" xlink:href="#bs"/><use transform="matrix(0.007595486111111109,0,0,0.007595486111111109,102.64539930555554,0)" xlink:href="#bw"/><use transform="matrix(0.007595486111111109,0,0,0.007595486111111109,109.50412326388887,0)" xlink:href="#bu"/><use transform="matrix(0.007595486111111109,0,0,0.007595486111111109,117.76041666666664,0)" xlink:href="#bx"/><use transform="matrix(0.007595486111111109,0,0,0.007595486111111109,126.38888888888886,0)" xlink:href="#by"/><use transform="matrix(0.007595486111111109,0,0,0.007595486111111109,133.97677951388886,0)" xlink:href="#aZ"/><use transform="matrix(0.007595486111111109,0,0,0.007595486111111109,140.43294270833331,0)" xlink:href="#ba"/></g><path d="M76-167L44 0H12l33-167H18l4-23h27c3-47 25-81 82-69l-4 24c-35-8-44 15-46 45h37l-5 23H76" id="bz"/><path d="M165-48c-4 18 1 34 23 27l-3 20c-29 8-62 0-52-35h-2C116-14 99 4 63 4 30 4 8-16 8-49c0-68 71-67 138-67 10-26 0-56-31-54-26 1-42 9-47 31l-32-5c8-67 160-71 144 15-5 28-9 54-15 81zM42-50c3 52 80 24 89-6 7-12 7-24 11-38-47 1-103-4-100 44" id="bA"/><path d="M6 0l50-261h32L37 0H6" id="bB"/><path d="M55-144c13 50 104 24 104 88C159 21 15 23 1-39l26-10c6 40 102 42 102-4-13-50-104-23-104-87 0-71 143-71 148-8l-29 4c-5-35-85-37-89 0" id="bC"/><g id="ag"><use transform="matrix(0.04320987654320987,0,0,0.04320987654320987,0,0)" xlink:href="#bz"/><use transform="matrix(0.04320987654320987,0,0,0.04320987654320987,4.320987654320986,0)" xlink:href="#bA"/><use transform="matrix(0.04320987654320987,0,0,0.04320987654320987,12.962962962962958,0)" xlink:href="#bB"/><use transform="matrix(0.04320987654320987,0,0,0.04320987654320987,16.376543209876537,0)" xlink:href="#bC"/><use transform="matrix(0.04320987654320987,0,0,0.04320987654320987,24.154320987654312,0)" xlink:href="#aM"/></g><use transform="matrix(0.009765625,0,0,0.009765625,0,0)" xlink:href="#aN" id="ai"/><g id="aj"><use transform="matrix(0.009765625,0,0,0.009765625,0,0)" xlink:href="#aO"/><use transform="matrix(0.009765625,0,0,0.009765625,5.2734375,0)" xlink:href="#aP"/></g><g id="ak"><use transform="matrix(0.009765625,0,0,0.009765625,0,0)" xlink:href="#bc"/><use transform="matrix(0.0068359375,0,0,0.0068359375,14.238281249999998,3.32568359375)" xlink:href="#bd"/></g><use transform="matrix(0.009765625,0,0,0.009765625,0,0)" xlink:href="#bo" id="al"/><g id="am"><use transform="matrix(0.009765625,0,0,0.009765625,0,0)" xlink:href="#bd"/><use transform="matrix(0.009765625,0,0,0.009765625,11.07421875,0)" xlink:href="#bp"/><use transform="matrix(0.009765625,0,0,0.009765625,22.1484375,0)" xlink:href="#bp"/><use transform="matrix(0.009765625,0,0,0.009765625,33.22265625,0)" xlink:href="#bp"/><use transform="matrix(0.009765625,0,0,0.009765625,44.296875,0)" xlink:href="#bp"/><use transform="matrix(0.009765625,0,0,0.009765625,55.37109375,0)" xlink:href="#bp"/></g><path d="M825-675l-258-569-258 569H157l338-706h144l338 706H825" id="bD"/><use transform="matrix(0.009765625,0,0,0.009765625,0,0)" xlink:href="#bD" id="an"/><g id="ao"><use transform="matrix(0.009765625,0,0,0.009765625,0,0)" xlink:href="#bo"/><use transform="matrix(0.009765625,0,0,0.009765625,14.98046875,0)" xlink:href="#aP"/></g><g id="ap"><use transform="matrix(0.009765625,0,0,0.009765625,0,0)" xlink:href="#bc"/><use transform="matrix(0.0068359375,0,0,0.0068359375,14.238281249999998,3.32568359375)" xlink:href="#bm"/></g><g id="aq"><use transform="matrix(0.009765625,0,0,0.009765625,0,0)" xlink:href="#aR"/><use transform="matrix(0.009765625,0,0,0.009765625,11.435546875,0)" xlink:href="#aO"/><use transform="matrix(0.009765625,0,0,0.009765625,16.708984375,0)" xlink:href="#aP"/><use transform="matrix(0.009765625,0,0,0.009765625,31.650390625,0)" xlink:href="#bb"/><use transform="matrix(0.009765625,0,0,0.009765625,39.39453125,0)" xlink:href="#bc"/><use transform="matrix(0.0068359375,0,0,0.0068359375,53.6328125,3.32568359375)" xlink:href="#bd"/></g><use transform="matrix(0.009765625,0,0,0.009765625,0,0)" xlink:href="#aP" id="ar"/><g id="as"><use transform="matrix(0.009765625,0,0,0.009765625,0,0)" xlink:href="#be"/><use transform="matrix(0.0068359375,0,0,0.0068359375,11.484375,3.32568359375)" xlink:href="#bd"/><use transform="matrix(0.0068359375,0,0,0.0068359375,19.236328125,3.32568359375)" xlink:href="#bi"/></g><g id="at"><use transform="matrix(0.009765625,0,0,0.009765625,0,0)" xlink:href="#bc"/><use transform="matrix(0.0068359375,0,0,0.0068359375,14.238281249999998,3.32568359375)" xlink:href="#bj"/></g><g id="au"><use transform="matrix(0.009765625,0,0,0.009765625,0,0)" xlink:href="#be"/><use transform="matrix(0.0068359375,0,0,0.0068359375,11.484375,3.32568359375)" xlink:href="#bj"/><use transform="matrix(0.0068359375,0,0,0.0068359375,19.236328125,3.32568359375)" xlink:href="#bi"/></g><g id="av"><use transform="matrix(0.009765625,0,0,0.009765625,0,0)" xlink:href="#bc"/><use transform="matrix(0.0068359375,0,0,0.0068359375,14.238281249999998,3.32568359375)" xlink:href="#bm"/></g><g id="aw"><use transform="matrix(0.009765625,0,0,0.009765625,0,0)" xlink:href="#bc"/><use transform="matrix(0.0068359375,0,0,0.0068359375,14.238281249999998,3.32568359375)" xlink:href="#bj"/></g><use transform="matrix(0.0068359375,0,0,0.0068359375,0,3.32568359375)" xlink:href="#bl" id="ax"/><use transform="matrix(0.0068359375,0,0,0.0068359375,0,3.32568359375)" xlink:href="#bj" id="ay"/><use transform="matrix(0.009765625,0,0,0.009765625,0,0)" xlink:href="#bf" id="az"/><g id="aA"><use transform="matrix(0.009765625,0,0,0.009765625,0,0)" xlink:href="#aT"/><use transform="matrix(0.009765625,0,0,0.009765625,9.66796875,0)" xlink:href="#bg"/></g><g id="aB"><use transform="matrix(0.009765625,0,0,0.009765625,0,0)" xlink:href="#bc"/><use transform="matrix(0.0068359375,0,0,0.0068359375,14.238281249999998,3.32568359375)" xlink:href="#bd"/></g><g id="aC"><use transform="matrix(0.009765625,0,0,0.009765625,0,0)" xlink:href="#bh"/><use transform="matrix(0.009765625,0,0,0.009765625,10.078125,0)" xlink:href="#bg"/></g><g id="aD"><use transform="matrix(0.009765625,0,0,0.009765625,0,0)" xlink:href="#bc"/><use transform="matrix(0.0068359375,0,0,0.0068359375,14.238281249999998,3.32568359375)" xlink:href="#bj"/></g><g id="aE"><use transform="matrix(0.009765625,0,0,0.009765625,0,0)" xlink:href="#bk"/><use transform="matrix(0.009765625,0,0,0.009765625,9.091796875,0)" xlink:href="#bg"/></g><g id="aF"><use transform="matrix(0.009765625,0,0,0.009765625,0,0)" xlink:href="#bc"/><use transform="matrix(0.0068359375,0,0,0.0068359375,14.238281249999998,3.32568359375)" xlink:href="#bm"/></g><path d="M80-49c102-19 114-74 113-201-3-321 4-654-1-971-1-99-32-140-128-148v-52c101-3 197-11 301-10v632l4 1c86-84 117-119 213-158 29-12 62-16 96-16 204 2 267 132 267 345v377c0 138 5 175 113 201V0H664v-49c96-19 111-76 109-197-2-143 8-353-13-466-17-89-63-140-164-140-72 0-98 23-146 64-47 40-85 81-85 155v383c-4 126 10 182 111 201V0H80v-49" id="bE"/><g id="aG"><use transform="matrix(0.007595486111111109,0,0,0.007595486111111109,0,0)" xlink:href="#br"/><use transform="matrix(0.007595486111111109,0,0,0.007595486111111109,6.43337673611111,0)" xlink:href="#aX"/><use transform="matrix(0.007595486111111109,0,0,0.007595486111111109,15.023871527777775,0)" xlink:href="#aV"/><use transform="matrix(0.007595486111111109,0,0,0.007595486111111109,23.70551215277777,0)" xlink:href="#bs"/><use transform="matrix(0.007595486111111109,0,0,0.007595486111111109,29.470486111111104,0)" xlink:href="#bu"/><use transform="matrix(0.007595486111111109,0,0,0.007595486111111109,37.72677951388888,0)" xlink:href="#aY"/><use transform="matrix(0.007595486111111109,0,0,0.007595486111111109,42.99045138888888,0)" xlink:href="#bE"/><use transform="matrix(0.007595486111111109,0,0,0.007595486111111109,51.57335069444443,0)" xlink:href="#by"/><use transform="matrix(0.007595486111111109,0,0,0.007595486111111109,59.16124131944443,0)" xlink:href="#br"/><use transform="matrix(0.007595486111111109,0,0,0.007595486111111109,65.59461805555554,0)" xlink:href="#bs"/><use transform="matrix(0.007595486111111109,0,0,0.007595486111111109,71.35959201388887,0)" xlink:href="#aU"/><use transform="matrix(0.007595486111111109,0,0,0.007595486111111109,75.68142361111109,0)" xlink:href="#bt"/><use transform="matrix(0.007595486111111109,0,0,0.007595486111111109,88.62413194444441,0)" xlink:href="#aW"/><use transform="matrix(0.007595486111111109,0,0,0.007595486111111109,97.27539062499997,0)" xlink:href="#bu"/><use transform="matrix(0.007595486111111109,0,0,0.007595486111111109,105.53168402777774,0)" xlink:href="#br"/><use transform="matrix(0.007595486111111109,0,0,0.007595486111111109,111.96506076388886,0)" xlink:href="#aY"/><use transform="matrix(0.007595486111111109,0,0,0.007595486111111109,117.22873263888886,0)" xlink:href="#bv"/><use transform="matrix(0.007595486111111109,0,0,0.007595486111111109,124.82421874999997,0)" xlink:href="#aV"/><use transform="matrix(0.007595486111111109,0,0,0.007595486111111109,133.50585937499997,0)" xlink:href="#aY"/><use transform="matrix(0.007595486111111109,0,0,0.007595486111111109,138.76953124999997,0)" xlink:href="#bs"/><use transform="matrix(0.007595486111111109,0,0,0.007595486111111109,144.53450520833331,0)" xlink:href="#bw"/><use transform="matrix(0.007595486111111109,0,0,0.007595486111111109,151.39322916666666,0)" xlink:href="#bu"/><use transform="matrix(0.007595486111111109,0,0,0.007595486111111109,159.64952256944443,0)" xlink:href="#bx"/><use transform="matrix(0.007595486111111109,0,0,0.007595486111111109,168.27799479166666,0)" xlink:href="#by"/><use transform="matrix(0.007595486111111109,0,0,0.007595486111111109,175.86588541666666,0)" xlink:href="#aZ"/><use transform="matrix(0.007595486111111109,0,0,0.007595486111111109,182.3220486111111,0)" xlink:href="#ba"/></g><use transform="matrix(0.009765625,0,0,0.009765625,0,0)" xlink:href="#bq" id="aH"/><path d="M364-250c-2 134 9 178 112 201V0H79v-49c104-15 114-81 113-201-2-321 3-654-2-971-1-99-31-140-127-148v-52c101-3 197-11 301-10v1181" id="bF"/><path d="M121-636c0-230 148-337 376-337 48 0 96 6 143 17h354v101l-185-7-9 11c41 40 68 119 67 200 0 226-152 342-386 340-55 0-103-7-143-21-51 39-76 77-76 114 2 90 67 91 164 91h240c183 1 297 75 297 251 0 288-328 357-633 311-145-22-267-72-267-232C63 96 141 42 224-2c-56-22-101-69-101-143 0-114 62-144 145-213-89-51-147-146-147-278zm374-261c-137 0-195 99-195 245 0 151 58 261 198 261 139 0 189-107 189-245 0-149-52-261-192-261zM800 170c0-109-69-148-183-148-95 0-209 3-292-6-57 45-102 88-102 177 0 144 124 175 290 175 157 0 287-51 287-198" id="bG"/><path d="M765-808c0-71-37-82-105-99v-49h374v49c-97 21-112 89-152 176L545 10H427L156-737c-41-98-41-144-137-170v-49h408v49c-63 17-103 22-103 90 0 49 12 81 27 125l174 506 204-485c21-52 36-80 36-137" id="bH"/><g id="aI"><use transform="matrix(0.007595486111111109,0,0,0.007595486111111109,0,0)" xlink:href="#by"/><use transform="matrix(0.007595486111111109,0,0,0.007595486111111109,7.587890624999998,0)" xlink:href="#br"/><use transform="matrix(0.007595486111111109,0,0,0.007595486111111109,14.021267361111107,0)" xlink:href="#br"/><use transform="matrix(0.007595486111111109,0,0,0.007595486111111109,20.226779513888882,0)" xlink:href="#bu"/><use transform="matrix(0.007595486111111109,0,0,0.007595486111111109,28.483072916666657,0)" xlink:href="#br"/><use transform="matrix(0.007595486111111109,0,0,0.007595486111111109,34.916449652777764,0)" xlink:href="#bs"/><use transform="matrix(0.007595486111111109,0,0,0.007595486111111109,40.6814236111111,0)" xlink:href="#bF"/><use transform="matrix(0.007595486111111109,0,0,0.007595486111111109,44.90451388888888,0)" xlink:href="#by"/><use transform="matrix(0.007595486111111109,0,0,0.007595486111111109,52.49240451388888,0)" xlink:href="#bv"/><use transform="matrix(0.007595486111111109,0,0,0.007595486111111109,60.087890624999986,0)" xlink:href="#bx"/><use transform="matrix(0.007595486111111109,0,0,0.007595486111111109,68.7163628472222,0)" xlink:href="#aU"/><use transform="matrix(0.007595486111111109,0,0,0.007595486111111109,73.03819444444443,0)" xlink:href="#aV"/><use transform="matrix(0.007595486111111109,0,0,0.007595486111111109,81.71983506944443,0)" xlink:href="#bG"/><use transform="matrix(0.007595486111111109,0,0,0.007595486111111109,89.40646701388887,0)" xlink:href="#bs"/><use transform="matrix(0.007595486111111109,0,0,0.007595486111111109,95.1714409722222,0)" xlink:href="#aY"/><use transform="matrix(0.007595486111111109,0,0,0.007595486111111109,100.2983940972222,0)" xlink:href="#bu"/><use transform="matrix(0.007595486111111109,0,0,0.007595486111111109,108.55468749999997,0)" xlink:href="#bs"/><use transform="matrix(0.007595486111111109,0,0,0.007595486111111109,114.3196614583333,0)" xlink:href="#bt"/><use transform="matrix(0.007595486111111109,0,0,0.007595486111111109,127.26236979166664,0)" xlink:href="#by"/><use transform="matrix(0.007595486111111109,0,0,0.007595486111111109,134.85026041666663,0)" xlink:href="#bt"/><use transform="matrix(0.007595486111111109,0,0,0.007595486111111109,147.79296874999997,0)" xlink:href="#bs"/><use transform="matrix(0.007595486111111109,0,0,0.007595486111111109,153.55794270833331,0)" xlink:href="#bH"/><use transform="matrix(0.007595486111111109,0,0,0.007595486111111109,161.39648437499997,0)" xlink:href="#aX"/><use transform="matrix(0.007595486111111109,0,0,0.007595486111111109,169.98697916666663,0)" xlink:href="#bF"/><use transform="matrix(0.007595486111111109,0,0,0.007595486111111109,174.2100694444444,0)" xlink:href="#aV"/><use transform="matrix(0.007595486111111109,0,0,0.007595486111111109,182.8917100694444,0)" xlink:href="#aZ"/><use transform="matrix(0.007595486111111109,0,0,0.007595486111111109,189.34787326388886,0)" xlink:href="#ba"/></g></defs></g></svg>